<svg width="360" height="353" viewBox="0 0 360 353" fill="none" xmlns="http://www.w3.org/2000/svg">
<path d="M32 138.048L0 116.048H96L150 204.048L110 182.048L84 224.048H170V310.048H91.5035C79.5258 310.048 68.551 303.359 63.0618 292.713L14.105 197.767C9.06119 187.985 9.3981 176.297 14.997 166.822L32 138.048Z" fill="#4E529A"/>
<path d="M32 138.048L0 116.048H96L150 204.048L110 182.048L84 224.048C71.6803 245.23 58.1644 270.784 63.0618 292.713L14.105 197.767C9.06119 187.985 9.3981 176.297 14.997 166.822L32 138.048Z" fill="#8C8DFC"/>
<path d="M284.098 43.2542L318.309 24.8801L274.35 110.224L171.391 117.935L209.265 92.4485L183.832 50.1024L144.453 126.557L67.9985 87.1767L103.942 17.3932C109.427 6.74504 120.399 0.0513198 132.377 0.0461461L239.202 2.99884e-06C250.207 -0.00475244 260.443 5.64652 266.303 14.9627L284.098 43.2542Z" fill="#4E529A"/>
<path d="M284.098 43.2542L318.309 24.8801L274.35 110.224L171.391 117.935L209.265 92.4485L183.832 50.1024C170.643 29.4509 154.114 5.73385 132.377 0.0461461L239.202 2.99884e-06C250.207 -0.00475244 260.443 5.64652 266.303 14.9627L284.098 43.2542Z" fill="#8C8DFC"/>
<path d="M236.053 313.558L233 352.271L185 269.132L234.21 178.367L235.158 224.008L284.531 225.525L241.531 151.046L316.009 108.046L355.257 176.026C361.246 186.399 360.941 199.248 354.466 209.325L296.718 299.196C290.769 308.455 280.478 314.007 269.473 313.896L236.053 313.558Z" fill="#6E5795"/>
<path d="M236.053 313.558L233 352.271L185 269.132L234.21 178.367L235.158 224.008L284.531 225.525C309.035 225.603 337.923 224.531 354.466 209.325L296.718 299.196C290.769 308.455 280.478 314.007 269.473 313.896L236.053 313.558Z" fill="#CC99FF"/>
</svg>
