<svg width="200" height="200" viewBox="0 0 200 200" fill="none" xmlns="http://www.w3.org/2000/svg">
<rect width="200" height="200" rx="100" fill="black"/>
<path d="M50.1239 154.259L29.8431 114.927C27.7537 110.874 27.8932 106.033 30.2127 102.108L37.2563 90.1877L24 81.074H63.7689L86.1389 117.529L69.5685 108.415L58.7978 125.814M50.1239 154.259C52.3979 158.669 56.9443 161.44 61.9061 161.44H94.424V125.814H58.7978M50.1239 154.259C48.0951 145.175 53.6942 134.589 58.7978 125.814M78.8382 33.0191L123.091 33C127.651 32.998 131.891 35.3391 134.318 39.1984L141.69 50.9185L155.862 43.3068L137.652 78.6614L95.0002 81.8555L110.69 71.2976L100.154 53.7554M78.8382 33.0191C73.8764 33.0213 69.3312 35.7942 67.0591 40.2053L52.169 69.1137L83.8408 85.4272L100.154 53.7554M78.8382 33.0191C87.8432 35.3753 94.6904 45.2003 100.154 53.7554" stroke="#8C8DFC" stroke-width="2"/>
<path d="M170.841 119.715L146.918 156.945C144.454 160.781 140.191 163.08 135.632 163.034L121.787 162.894L120.522 178.932L100.638 144.491L121.024 106.89L121.416 125.798L141.869 126.426M170.841 119.715C173.523 115.541 173.649 110.218 171.169 105.921L154.91 77.7594L124.056 95.5725L141.869 126.426M170.841 119.715C163.988 126.014 152.02 126.458 141.869 126.426" stroke="#CC99FF" stroke-width="2"/>
</svg>
